<svg width="1920" height="1440" viewBox="0 0 1920 1440" fill="none" xmlns="http://www.w3.org/2000/svg">
<rect width="1920" height="1440" fill="#E6E6E6"/>
<circle cx="960.5" cy="719.5" r="558.729" stroke="white" stroke-opacity="0.5" stroke-width="49.5425"/>
<path d="M909.877 993.586H551.691V957.453L747.672 735.158C780.139 697.716 802.657 666.82 815.225 642.47C827.793 618.119 834.077 594.424 834.077 571.382C834.077 535.25 823.472 506.71 802.264 485.764C781.056 464.555 751.861 453.951 714.681 453.951C676.192 453.951 645.034 466.257 621.207 490.869C597.643 515.481 585.86 547.425 585.86 586.7H539.123C539.123 554.494 546.324 525.169 560.724 498.724C575.387 472.279 596.072 451.595 622.778 436.67C649.747 421.484 680.381 413.891 714.681 413.891C767.048 413.891 807.893 427.637 837.219 455.129C866.805 482.622 881.599 520.063 881.599 567.455C881.599 594.162 873.22 623.356 856.463 655.038C839.968 686.719 810.774 726.256 768.88 773.647L609.425 953.918H909.877V993.586ZM1334.83 569.026C1334.83 598.613 1326.19 625.189 1308.91 648.754C1291.63 672.057 1268.85 689.207 1240.57 700.204C1273.56 711.462 1300.01 729.66 1319.91 754.796C1339.8 779.931 1349.75 808.995 1349.75 841.985C1349.75 890.948 1333.13 929.83 1299.87 958.631C1266.62 987.171 1222.63 1001.44 1167.91 1001.44C1112.67 1001.44 1068.42 987.171 1035.16 958.631C1002.17 930.092 985.677 891.21 985.677 841.985C985.677 809.518 995.234 780.586 1014.35 755.188C1033.46 729.791 1059.64 711.462 1092.9 700.204C1064.62 689.207 1042.1 672.057 1025.34 648.754C1008.59 625.189 1000.21 598.613 1000.21 569.026C1000.21 521.634 1015.39 483.931 1045.77 455.915C1076.4 427.899 1116.85 413.891 1167.13 413.891C1217.4 413.891 1257.85 428.03 1288.49 456.307C1319.38 484.585 1334.83 522.158 1334.83 569.026ZM1302.62 842.378C1302.62 806.769 1289.93 777.575 1264.53 754.796C1239.13 731.754 1206.66 720.234 1167.13 720.234C1127.59 720.234 1095.25 731.493 1070.12 754.01C1044.98 776.528 1032.41 805.984 1032.41 842.378C1032.41 878.773 1044.59 907.836 1068.94 929.568C1093.29 951.038 1126.28 961.773 1167.91 961.773C1208.5 961.773 1241.09 951.038 1265.71 929.568C1290.32 908.098 1302.62 879.035 1302.62 842.378ZM1287.7 568.633C1287.7 535.904 1276.31 508.674 1253.53 486.942C1231.01 464.948 1202.21 453.951 1167.13 453.951C1131.52 453.951 1102.58 464.555 1080.33 485.764C1058.34 506.71 1047.34 534.333 1047.34 568.633C1047.34 602.148 1058.34 629.116 1080.33 649.539C1102.58 669.962 1131.65 680.174 1167.52 680.174C1202.87 680.174 1231.67 669.962 1253.92 649.539C1276.44 628.855 1287.7 601.886 1287.7 568.633Z" fill="white" fill-opacity="0.5"/>
</svg>
