<svg width="228" height="228" viewBox="0 0 228 228" fill="none" xmlns="http://www.w3.org/2000/svg">
<g clip-path="url(#clip0)">
<rect width="228" height="228" rx="114" fill="white"/>
<path d="M26.8416 251.191C19.0354 205.568 26.8416 165.019 102.839 150.434V133.233C98.6028 132.473 94.887 133.009 82.8385 137.861C72.288 142.109 58.9375 134.425 60.0552 119.118H102.839C103.975 95.7382 100.193 78.5395 84.3142 70.6002C60.7642 83.6552 37.5634 67.8871 44.2392 48.0936C45.0654 45.6441 46.3491 43.133 48.1462 40.6072L125.334 20.759L139.007 3.55713C147.756 13.2324 150.255 19.2311 146.947 31.7858L155.327 36.1965L176.057 18.1125C186.357 25.3611 187.408 39.4346 182.232 64.8662C209.138 121.765 218.059 200.717 174.975 283.918C156.554 308.158 144.633 317.219 120.596 325.842C92.8842 299.059 75.2399 273.012 80.93 232.444L32.5994 267.971C28.9554 261.255 28.0019 257.586 26.8416 251.191Z" fill="black"/>
<path d="M56.6672 93.7252C71.8925 91.9806 78.0704 91.6861 93.703 107.801C93.703 107.801 75.3858 108.865 50.2928 112.203C22.4549 115.906 22.041 93.7252 22.041 93.7252C34.8177 105.121 45.6171 94.9914 56.6672 93.7252Z" fill="black"/>
<path d="M102.839 133.233V150.434C26.8416 165.019 19.0354 205.568 26.8416 251.191C28.0019 257.586 28.9554 261.255 32.5994 267.971L80.93 232.444C75.2399 273.012 92.8842 299.058 120.596 325.842C144.633 317.219 156.554 308.158 174.975 283.918C218.059 200.717 209.138 121.765 182.232 64.8662C187.408 39.4346 186.357 25.3611 176.057 18.1125L155.327 36.1965L146.947 31.7858M102.839 133.233C98.6028 132.473 94.887 133.009 82.8385 137.861C72.288 142.109 58.9375 134.425 60.0552 119.118H102.839C103.975 95.7382 100.193 78.5395 84.3142 70.6002C60.7642 83.6552 37.5634 67.8871 44.2392 48.0936M102.839 133.233C138.618 149.4 173.09 144.999 169.79 94.2688M125.334 20.759L48.1462 40.6072C46.3491 43.133 45.0654 45.6441 44.2392 48.0936M125.334 20.759L139.007 3.55713C147.756 13.2324 150.255 19.2311 146.947 31.7858M125.334 20.759L146.947 31.7858M94.4957 47.2442H112.593M130.691 47.2442H112.593M112.593 47.2442V60.2983M44.2392 48.0936H58.1025M93.703 107.801C78.0704 91.6861 71.8925 91.9806 56.6672 93.7252C45.6171 94.9914 34.8177 105.121 22.041 93.7252C22.041 93.7252 22.4549 115.906 50.2928 112.203C75.3858 108.865 93.703 107.801 93.703 107.801Z" stroke="white" stroke-width="5"/>
</g>
<defs>
<clipPath id="clip0">
<rect width="228" height="228" rx="114" fill="white"/>
</clipPath>
</defs>
</svg>
