<svg width="428" height="171" viewBox="0 0 428 171" fill="none" xmlns="http://www.w3.org/2000/svg">
<path d="M90.3769 19.4112C91.9432 17.401 95.2995 16.731 103.131 16.731H127.744C138.305 16.731 142.586 24.6228 143.406 28.5687L187.485 163.698H227.761C241.708 120.069 269.96 31.9637 271.392 28.5687C275.509 18.9198 284.295 16.5076 288.174 16.5076H323.303C347.021 16.5076 349.929 81.2801 323.303 81.2801H302.941V89.9909C308.013 89.3208 318.828 89.9909 323.303 89.9909C329.926 89.9909 333.073 102.648 333.819 108.976C334.118 113.369 334.983 124.03 336.057 131.535C337.911 144.489 343.004 151.093 350.153 156.55C361.385 165.124 392.991 164.177 408.278 163.719L409 163.698V156.55C397.812 154.317 394.869 147.616 389.31 117.91C385.506 97.5849 362.683 86.4172 347.021 84.8537V83.0669C373.647 83.0669 394.904 72.1307 394.904 44.4268C394.904 36.1627 392.219 7.12676 356.642 8.02017H263.114L228.656 128.854L193.079 8.02017H19V16.5076C26.8313 16.5076 30.1876 17.1777 31.7539 19.1879C33.0069 20.796 32.798 23.506 32.8726 24.325V148.956C32.798 149.775 33.0069 152.485 31.7539 154.093C30.1876 156.104 27.5026 156.774 19.6713 156.774V163.698H103.131V156.774C95.2995 156.774 91.9432 156.104 90.3769 154.093C89.1239 152.485 89.3328 149.775 89.2582 148.956V24.5483C89.3328 23.7294 89.1239 21.0194 90.3769 19.4112Z" fill="#C4C4C4"/>
</svg>
